/* XPM */
static char *_555723982133[] = {
/* columns rows colors chars-per-pixel */
"64 64 234 2 ",
"   c #093803",
".  c #192A15",
"X  c #153210",
"o  c #221333",
"O  c #252626",
"+  c #3A3938",
"@  c #203C1C",
"#  c #50232F",
"$  c #4E2F34",
"%  c #095D00",
"&  c #0D5708",
"*  c #124B0D",
"=  c #117208",
"-  c #237113",
";  c #385936",
":  c #306A2D",
">  c #366634",
",  c #224718",
"<  c #427E39",
"1  c #1E004B",
"2  c #290758",
"3  c #270E4E",
"4  c #012948",
"5  c #032948",
"6  c #0B3154",
"7  c #320168",
"8  c #350969",
"9  c #3A0273",
"0  c #3C0973",
"q  c #2F0961",
"w  c #003C73",
"e  c #063A69",
"r  c #3B2C5F",
"t  c #472356",
"y  c #44097E",
"u  c #513D69",
"i  c #08457B",
"p  c #164579",
"a  c #2E4D72",
"s  c #565757",
"d  c #4C4B4C",
"f  c #576855",
"g  c #57586D",
"h  c #596874",
"j  c #6E6E6D",
"k  c #6C5A4D",
"l  c #8E1801",
"z  c #941D06",
"x  c #99230D",
"c  c #AC2001",
"v  c #A92409",
"b  c #BE3C01",
"n  c #BE3E0F",
"m  c #B82A0F",
"M  c #A7392A",
"N  c #DF270F",
"B  c #C73B09",
"V  c #DF3E06",
"C  c #DC3B0B",
"Z  c #D22B10",
"A  c #E6360A",
"S  c #E53C0B",
"D  c #E53813",
"F  c #E02910",
"G  c #CF342A",
"H  c #E23623",
"J  c #DA410B",
"K  c #CC410A",
"L  c #ED460D",
"P  c #F1490B",
"I  c #F65306",
"U  c #F85006",
"Y  c #F5530A",
"T  c #F7550C",
"R  c #F05317",
"E  c #EA6B15",
"W  c #EA6A1A",
"Q  c #F36419",
"!  c #C77137",
"~  c #CA7338",
"^  c #D77432",
"/  c #F46C27",
"(  c #F4722B",
")  c #ED722C",
"_  c #DB4C24",
"`  c #AC2C7D",
"'  c #B93270",
"]  c #C23A5C",
"[  c #C23D53",
"{  c #CD3144",
"}  c #C43664",
"|  c #B25A4E",
" . c #B87455",
".. c #95776F",
"X. c #AB726A",
"o. c #945E56",
"O. c #E8674C",
"+. c #B74636",
"@. c #088802",
"#. c #069000",
"$. c #0A9203",
"%. c #169308",
"&. c #21930A",
"*. c #19A404",
"=. c #1DBC02",
"-. c #20AB08",
";. c #29B70F",
":. c #1BBC35",
">. c #1CBC3D",
",. c #2EA435",
"<. c #4E953F",
"1. c #46B13D",
"2. c #1EC400",
"3. c #22C606",
"4. c #32D213",
"5. c #35D61A",
"6. c #31D017",
"7. c #32D131",
"8. c #06F12C",
"9. c #0EF12D",
"0. c #16E82E",
"q. c #1ED52F",
"w. c #45DB2F",
"e. c #4EEA33",
"r. c #54EA32",
"t. c #51E535",
"y. c #4EE42D",
"u. c #1CBA4F",
"i. c #14B074",
"p. c #17B275",
"a. c #1AB569",
"s. c #22BB5B",
"d. c #5A8E55",
"f. c #36C847",
"g. c #32CA74",
"h. c #FB922F",
"j. c #FE9934",
"k. c #F59537",
"l. c #EF8931",
"z. c #DC833A",
"x. c #8E8479",
"c. c #AE8F73",
"v. c #F39449",
"b. c #C68E74",
"n. c #EC956F",
"m. c #EEA45F",
"M. c #450682",
"N. c #490985",
"B. c #5B069E",
"V. c #580A99",
"C. c #51098F",
"Z. c #6C0DB0",
"A. c #5E09A1",
"S. c #024A85",
"D. c #074C88",
"F. c #005699",
"G. c #065899",
"H. c #0B518D",
"J. c #327283",
"K. c #0B67AA",
"L. c #066CB4",
"P. c #096EB5",
"I. c #0975BB",
"U. c #0970B7",
"Y. c #205D94",
"T. c #704C9D",
"R. c #69538B",
"E. c #506B8C",
"W. c #717385",
"Q. c #774DA6",
"!. c #7A0AC5",
"~. c #7D12C5",
"^. c #067DCE",
"/. c #0A7ECE",
"(. c #0C79C3",
"). c #A82B86",
"_. c #A12A99",
"`. c #921BA1",
"'. c #9521A7",
"]. c #9A28B5",
"[. c #A029A5",
"{. c #9B1DDD",
"}. c #931CD7",
"|. c #8616CC",
" X c #9825CD",
".X c #9225CF",
"XX c #A839D5",
"oX c #A534D7",
"OX c #A334C8",
"+X c #AF57E3",
"@X c #A54ECB",
"#X c #17B085",
"$X c #14A8AD",
"%X c #7C8180",
"&X c #7C868F",
"*X c #778695",
"=X c #508AAD",
"-X c #4A8BB1",
";X c #5093BA",
":X c #7394AC",
">X c #0686D9",
",X c #0A88D9",
"<X c #0A9ED3",
"1X c #0E94D5",
"2X c #1191CE",
"3X c #328DD3",
"4X c #0CA1C5",
"5X c #0FA0C8",
"6X c #0AA0D3",
"7X c #12A4C5",
"8X c #0A8EE2",
"9X c #068DE1",
"0X c #0695EE",
"qX c #0A95EC",
"wX c #0D93E7",
"eX c #0D97EF",
"rX c #2A95E5",
"tX c #34A7EA",
"yX c #51B1D7",
"uX c #52B4DB",
"iX c #4EA9D4",
"pX c #70A4D1",
"aX c #57B6E7",
"sX c #49B9F1",
"dX c #42B4F1",
"fX c #4DB6ED",
"gX c #529DC5",
"hX c #6EC3EE",
"jX c #41D48B",
"kX c #88898F",
"lX c #A39191",
"zX c #E0AD86",
"xX c #8CC6E8",
"cX c None",
/* pixels */
"cXcXcXcXcXcXcXcXcXcXcXcXcXcXcXcXcXcXcXcXcXcXcXcXcXcXcXcXcXcXcXcXcXcXcXcXcXcXcXcXcXcXcXcXcXcXcXcXcXcXcXcXcXcXcXcXcXcXcXcXcXcXcXcX",
"cXcXcXcXcXcXcXcXcXcXcXcXcXcXcXcXcXcXcXcXcXcXcXcXcXcXcXcXcXcXcXcXcXcXcXcXcXcXcXcXcXcXcXcXcXcXcXcXcXcXcXcXcXcXcXcXcXcXcXcXcXcXcXcX",
"cXcXcXcXcXcXcXcXcXcXcXcXcXcXcXcXcXcXcXcXcXcXcXcXcXcXcXcXcXcXcXcXcXcXcXcXcXcXcXcXcXcXcXcXcXcXcXcXcXcXcXcXcXcXcXcXcXcXcXcXcXcXcXcX",
"cXcXcXcXcXcXcXcXcXcXcXcXcXcXcXcXcXcXcXcXcXcXcXcXcXcXcXcXcXcXcXcXcXcXcXcXcXcXcXcXcXcXcXcXcXcXcXcXcXcXcXcXcXcXcXcXcXcXcXcXcXcXcXcX",
"cXcXcXcXcXcXcXcXcXcXcXcXcXcXcXcXcXcXcXcXcXcXcXcXcXcXcXcXcXcXcXcXcXcXcXcXcXcXcXcXcXcXcXcXcXcXcXcXcXcXcXcXcXcXcXcXcXcXcXcXcXcXcXcX",
"cXcXcXcXcXcXcXcXcXcXcXcXcXcXcXcXcXcXcXcXcXcXcXcXcXcXcXcXcXcXcXcXcXcXcXcXcXcXcXcXcXcXcXcXcXcXcXcXcXcXcXcXcXcXcXcXcXcXcXcXcXcXcXcX",
"cXcXcXcXcXcXcXcXcXcXcXcXcXcXcXcXcXcXcXcXcXcXcXcXcXcXcXcXcXcXcXcXcXcXcXcXcXcXcXcXcXcXcXcXcXcXcXcXcXcXcXcXcXcXcXcXcXcXcXcXcXcXcXcX",
"cXcXcXcXcXcXcXcXcXcXcXcXcXcXcXcXcXcXcXcXcXcXcXcXcXcXcXcXcXcXcXcXcXcXcXcXcXcXcXcXcXcXcXcXcXcXcXcXcXcXcXcXcXcXcXcXcXcXcXcXcXcXcXcX",
"cXcXcXcXcXcXcXcXcXcXcXcXcXcXcXcXcXcXcXcXcXcXcXcXcXcXcXcXcXcXcXcXcXcXcXcXcXcXcXcXcXcXcXcXcXcXcXcXcXcXcXcXcXcXcXcXcXcXcXcXcXcXcXcX",
"cXcXcXcXcXcXcXcXcXcXcXcXcXcXcXcXcXcXcXcXcXcXcXcXcXcXcXcXcXcXcXcXcXcXcXcXcXcXcXcXcXcXcXcXcXcXcXcXcXcXcXcXcXcXcXcXcXcXcXcXcXcXcXcX",
"cXcXcXcXcXcXcXcXcXcXg g E.h cXcXcXcXcXcXcXcXcXcXcXcXcXcXcXcXcXcXcXcXcXcXcXcXcXcXcXcXcXcXcXcXcXcXcXO ..| X.d cXcXcXcXcXcXcXcXcXcX",
"cXcXcXcXcXcXcXO j E.6 5 e D.*Xj cXcXcXcXcXcXcXcXcXcXcXcXcXcXcXcXcXcXcXcXcXcXcXcXcXcXcXcXcXcXcXO x.| v v z x X.j cXcXcXcXcXcXcXcX",
"cXcXcXcXcXcXs j 6 4 4 4 e w w a kXj cXcXcXcXcXcXcXcXcXcXcXcXcXcXcXcXcXcXcXcXcXcXcXcXcXcXcXcXj X.m c c z l l l M lX+ cXcXcXcXcXcX",
"cXcXcXcX+ kXa 5 5 4 4 4 6 w w w e Y.*X+ cXcXcXcXcXcXcXcXcXcXcXcXcXcXcXcXcXcXcXcXcXcXcXcXk X.M c v c c z l l l l l | x.O cXcXcXcX",
"cXcXcXs E.6 6 5 5 5 4 4 6 w w w w w w E.g O cXcXcXcXcXcXcXcXcXcXcXcXcXcXcXcXcXcXcXcX+ o.+.c c c c c v z l l l l z z x  .$ cXcXcX",
"cXcXcXJ.(.H.S.D.D.i i i i H.H.H.S.i S.S.i E.kXO cXcXcXcXcXcXcXcXcXcXcXcXcXcXcXcXt x.| c Z m m Z Z Z Z B B B C S A A L _ # cXcXcX",
"cXcXcXJ.<X,XP.D.S.S.S.S.S.G.F.F.F.F.F.F.G.G.P.pXkXO cXcXcXcXcXcXcXcXcXcXcXcX+ lXn.L F F N N N N Z N N J V V V J J K n ] # cXcXcX",
"cXcXcXJ.5X1X>X>XK.S.S.S.S.H.F.F.F.F.F.G.K.P.P.^./.pXh cXcXcXcXcXcXcXcXcXcX..n.( / U T L F N N N N N V V V V C J B b G ] # cXcXcX",
"cXcXcXJ.4X4X,X>X>X/.G.S.S.H.F.F.F.G.K.P.L.L.P././././.;Xg cXcXcXcXcXcXk n.( ( ( / U U U P D F F N N C S V K K b b +.[ ] # cXcXcX",
"cXcXcXJ.4X4X5X>X>X>X>XU.D.D.F.F.G.P.P.L.L.L.P.^./././.^.3X:XO cXcXd b.v.( ( ( ( / U U U U U P F N F J J K b b b b [ ] ] # cXcXcX",
"cXcXcXJ.4X4X4X1X,X>X>X>X,XK.G.K.P.L.L.L.L.L.P./.^./././././.3X:Xb.v.( ( ( ( ( ( ( U U U U U U Y L D K n b b b b { ] ] ] # cXcXcX",
"cXcXcXJ.4X4X4X5X,X,X>X,X1X1X2X1XqXqX0X0X0XqXqX8X8X8X8X8X8X8XwXrXW T T R I U T T T D A A A A A D R R F B B b n B | ] ] ] # cXcXcX",
"cXcXcXJ.4X4X4X4X5X8X1X6X<X<XI.>X,XwX0X0X0X0X0X9X9X9X8X8XwXwX0XrXW E Q I I I U U P A A A A A D / ( L F N F B B [ } } ] ] # cXcXcX",
"cXcXcXJ.4X5X$X$X#X7X6X<X<X6XI.I.^./.,XqX0X0X0X9X9X9X8XwXeXeX0XrXW E E W Q U U U U A A A D / ( ( R P N N N N { ).' ] ] ] # cXcXcX",
"cXcXcXJ.$X#Xi.i.i.#X1X<X6X6XI.L.^.^.^.^.wX0X0X9X9XwXeX0X0X0X0XrXW E E E E E T I P A S R ( ( ( / U P N N N N ` ` ` ` ' ' $ cXcXcX",
"cXcXcX<.s.i.i.i.i.i.$X<X6X6XI.L.U./.^.^.^./.wXwX0X0X0X0X0XeX0XrXW E E E E E E E Y R / ) ( ( ( T U D N N N ' ` ` ` ` )._.g cXcXcX",
"cXcXcX<.w.u.a.i.i.i.a.4X6X6XI.L.L./.^.^.^./.(.tXdXdXdXdXdXdXsXaXk.h.h.h.h.j.h.l.) / ( ( ( ( Q U U P N N { ).` ` ` ).`.XXt cXcXcX",
"cXcXcX<.r.7.:.u.a.i.i.#X6X6XI.L.L.U./.^.(.P.P.rXuXfXsXsXsXsXsXaXj.j.j.j.j.j.z.~ E T T / ( ( Y U U L N N ` ).` ).'.`.].XXt cXcXcX",
"cXcXcX<.r.t.>.:.:.u.i.i.$X6XI.L.L.L.(.P.L.L.L.0XtXyXuXfXdXsXsXaXk.j.j.k.l.~ ! ^ E U I I T Q U U U L F } ` ` _.`.`.'.XXXXt cXcXcX",
"cXcXcX<.r.r.7.>.:.:.:.a.p.7XI.L.(.8XqX(.L.L.L.qXeXyXyXyXuXsXsXaXj.j.k.z.! ! ^ E Q I I I T A D U U L { )._.`.`.`.`.OXXXXXt cXcXcX",
"cXcXcX<.r.r.r.7.:.:.:.:.u.#X(.,XqX0X0X,XL.L.L.0XqXtXiXyXyXyXaXaXk.z.! ! ! ! W E E U U U D A A A U D ).`.`.`.`.`.].XXXXXXt cXcXcX",
"cXcXcX<.r.r.r.t.:.:.:.:.q.0.g.1X0XqX0X0X(.L.L.0XqXeXyXyXyXyXyXgXc.! ! ! ! ~ E E E U T P A A A A { OX X`.`.`.`.'.XXXXXXXXt cXcXcX",
"cXcXcX<.r.r.r.r.7.>.q.0.8.8.e.7.$X0X0X0X,XL.L.qX0X0XrXyXyXyX;X=Xd... .! ! E E E E U I S A A H ' ].oX{.{.{.'.`.OXXXXXXXXXt cXcXcX",
"cXcXcX<.r.r.r.r.w.0.8.8.8.8.e.r.:.u.$X0XqX,XL.qX0X0X0XiX;X-X-X=X%X%XkX..^ E E E E I P A D } [.'.XXoX{.{.{.{.}..XXXXXXXXXt cXcXcX",
"cXcXcX<.r.y.w.4.4.5.8.8.8.8.e.r.w.>.0.jXfXqXP.qX0XeXtXfX-X-X-X=X%X%X%XkXj.l.E E E I L O.XX X`.OXoXoX{.{.{.{.|.!.!..XoXXXt cXcXcX",
"cXcXcX< 4.4.4.4.6.6.0.8.8.8.e.r.r.7.8.f.d pXrXeXtXsXsXsXiX-X-X=XkX%X%Xz.j.j.j.E E O.X.t +X{.OXXXXXoX{.{.{.|.!.!.!.!.!.~.r cXcXcX",
"cXcXcX: = ;.4.4.4.4.6.9.8.8.e.r.r.5.0.f.cXcX&XxXsXsXsXsXsX;X-X=XkXkXx.j.j.j.j.j.zXj cXcX+X}..XXXXXoX{.{.{.!.!.!.!.!.Z.C.o cXcXcX",
"cXcXcX: $.= -.4.4.4.4.5.8.8.e.r.y.4.5.f.cXcXcXcXE.hXsXsXsXuX-X=X%Xd.v.j.j.j.m.k cXcXcXcX+X!.!. XXXoX{.{.|.!.!.!.Z.A.A.9 o cXcXcX",
"cXcXcX: #.%.*.2.;.6.4.4.0.8.y.r.4.4.4.1.cXcXcXcXcX@ :XhXsXsX;X=X%Xc.j.j.m.c.cXcXcXcXcXcX@X!.|.|.XXoX{.}.!.!.Z.Z.A.A.N.7 o cXcXcX",
"cXcXcX: #.$.*.2.-.&.;.4.4.9.e.w.4.6.2.<.cXcXcXcXcXcXcXh xXaXfX=X%Xk.m.zXs cXcXcXcXcXcXcXQ.A.Z.!. XoX{.|.!.Z.B.B.B.A.8 7 o cXcXcX",
"cXcXcX: $.#.*.=.-.&.- - ;.0.e.6.3.2.3.> cXcXcXcXcXcXcXcXcX*XhXgXb.zXj cXcXcXcXcXcXcXcXcXT.A.B.Z.|.XX|.Z.A.B.B.B.B.M.7 7 o cXcXcX",
"cXcXcX: $.#.$.=.-.&.&., , : 6.3.2.2.*.> cXcXcXcXcXcXcXcXcXcXO W.o.cXcXcXcXcXcXcXcXcXcXcXT.V.B.B.A.Z.A.B.B.B.B.B.V.7 7 7 o cXcXcX",
"cXcXcX: #.#.#.*.*.&.&., , % *.3.2.3.= > cXcXcXcXcXcXcXcXcXcXcXcXcXcXcXcXcXcXcXcXcXcXcXcXT.C.B.B.A.0 M.V.B.B.B.B.y 7 7 7 o cXcXcX",
"cXcXcX: #.#.#.$.-.&.- = % % @.*.2.=.% > cXcXcXcXcXcXcXcXcXcXcXcXcXcXcXcXcXcXcXcXcXcXcXcXT.N.B.B.0 9 M.M.C.V.B.C.7 7 7 7 o cXcXcX",
"cXcXcX: #.#.#.#.%.= % % % % @.#.=.&.% > cXcXcXcXcXcXcXcXcXcXcXcXcXcXcXcXcXcXcXcXcXcXcXcXT.N.V.N.7 9 M.M.M.N.C.0 7 7 7 7 o cXcXcX",
"cXcXcX: #.#.$.= X * % % % % @.#.$.= % > cXcXcXcXcXcXcXcXcXcXcXcXcXcXcXcXcXcXcXcXcXcXcXcXT.N.N.7 7 9 M.M.M.M.8 3 q 7 7 7 o cXcXcX",
"cXcXcX: @.= * X X X % % % % @.#.@.* % > cXcXcXcXcXcXcXcXcXcXcXcXcXcXcXcXcXcXcXcXcXcXcXcXT.y 2 8 7 9 M.M.M.y 1 1 1 2 q 7 o cXcXcX",
"cXcXcX> &     X X . * % % % @.#.=   & > cXcXcXcXcXcXcXcXcXcXcXcXcXcXcXcXcXcXcXcXcXcXcXcXT.q 1 q 7 9 M.M.N.q 1 1 1 1 3 q o cXcXcX",
"cXcXcXd kX>   X X . . & % % @.$.&     ; cXcXcXcXcXcXcXcXcXcXcXcXcXcXcXcXcXcXcXcXcXcXcXcXR.1 1 2 7 9 M.M.M.1 1 1 1 1 g kXo cXcXcX",
"cXcXcXcXcXj j , X . . @ % % @.@.    ; f cXcXcXcXcXcXcXcXcXcXcXcXcXcXcXcXcXcXcXcXcXcXcXcXW.r 1 1 7 9 M.M.q 1 1 1 r h s cXcXcXcXcX",
"cXcXcXcXcXcXcXg f . . . & % @.%   f f cXcXcXcXcXcXcXcXcXcXcXcXcXcXcXcXcXcXcXcXcXcXcXcXcXcXkXt 2 q 9 M.0 1 1 2 W.d cXcXcXcXcXcXcX",
"cXcXcXcXcXcXcXcXO j f . @ % @.* f j cXcXcXcXcXcXcXcXcXcXcXcXcXcXcXcXcXcXcXcXcXcXcXcXcXcXcXcXg u 2 9 M.2 2 g j cXcXcXcXcXcXcXcXcX",
"cXcXcXcXcXcXcXcXcXcXd kX+ , = f d cXcXcXcXcXcXcXcXcXcXcXcXcXcXcXcXcXcXcXcXcXcXcXcXcXcXcXcXcXcXj g 9 y u kX+ cXcXcXcXcXcXcXcXcXcX",
"cXcXcXcXcXcXcXcXcXcXcXcXkXf d.d cXcXcXcXcXcXcXcXcXcXcXcXcXcXcXcXcXcXcXcXcXcXcXcXcXcXcXcXcXcXcXcXs R.W.j cXcXcXcXcXcXcXcXcXcXcXcX",
"cXcXcXcXcXcXcXcXcXcXcXcXcXcXcXcXcXcXcXcXcXcXcXcXcXcXcXcXcXcXcXcXcXcXcXcXcXcXcXcXcXcXcXcXcXcXcXcXcXcXcXcXcXcXcXcXcXcXcXcXcXcXcXcX",
"cXcXcXcXcXcXcXcXcXcXcXcXcXcXcXcXcXcXcXcXcXcXcXcXcXcXcXcXcXcXcXcXcXcXcXcXcXcXcXcXcXcXcXcXcXcXcXcXcXcXcXcXcXcXcXcXcXcXcXcXcXcXcXcX",
"cXcXcXcXcXcXcXcXcXcXcXcXcXcXcXcXcXcXcXcXcXcXcXcXcXcXcXcXcXcXcXcXcXcXcXcXcXcXcXcXcXcXcXcXcXcXcXcXcXcXcXcXcXcXcXcXcXcXcXcXcXcXcXcX",
"cXcXcXcXcXcXcXcXcXcXcXcXcXcXcXcXcXcXcXcXcXcXcXcXcXcXcXcXcXcXcXcXcXcXcXcXcXcXcXcXcXcXcXcXcXcXcXcXcXcXcXcXcXcXcXcXcXcXcXcXcXcXcXcX",
"cXcXcXcXcXcXcXcXcXcXcXcXcXcXcXcXcXcXcXcXcXcXcXcXcXcXcXcXcXcXcXcXcXcXcXcXcXcXcXcXcXcXcXcXcXcXcXcXcXcXcXcXcXcXcXcXcXcXcXcXcXcXcXcX",
"cXcXcXcXcXcXcXcXcXcXcXcXcXcXcXcXcXcXcXcXcXcXcXcXcXcXcXcXcXcXcXcXcXcXcXcXcXcXcXcXcXcXcXcXcXcXcXcXcXcXcXcXcXcXcXcXcXcXcXcXcXcXcXcX",
"cXcXcXcXcXcXcXcXcXcXcXcXcXcXcXcXcXcXcXcXcXcXcXcXcXcXcXcXcXcXcXcXcXcXcXcXcXcXcXcXcXcXcXcXcXcXcXcXcXcXcXcXcXcXcXcXcXcXcXcXcXcXcXcX",
"cXcXcXcXcXcXcXcXcXcXcXcXcXcXcXcXcXcXcXcXcXcXcXcXcXcXcXcXcXcXcXcXcXcXcXcXcXcXcXcXcXcXcXcXcXcXcXcXcXcXcXcXcXcXcXcXcXcXcXcXcXcXcXcX",
"cXcXcXcXcXcXcXcXcXcXcXcXcXcXcXcXcXcXcXcXcXcXcXcXcXcXcXcXcXcXcXcXcXcXcXcXcXcXcXcXcXcXcXcXcXcXcXcXcXcXcXcXcXcXcXcXcXcXcXcXcXcXcXcX",
"cXcXcXcXcXcXcXcXcXcXcXcXcXcXcXcXcXcXcXcXcXcXcXcXcXcXcXcXcXcXcXcXcXcXcXcXcXcXcXcXcXcXcXcXcXcXcXcXcXcXcXcXcXcXcXcXcXcXcXcXcXcXcXcX"
};
