/* XPM */
static char *_555723976560[] = {
/* columns rows colors chars-per-pixel */
"16 16 146 2 ",
"   c #060606",
".  c #090909",
"X  c #0C0C0C",
"o  c gray6",
"O  c #120C0C",
"+  c #0C0614",
"@  c #0C0914",
"#  c #0F181C",
"$  c #1A1A18",
"%  c #1A181A",
"&  c #200F12",
"*  c #122A12",
"=  c #142814",
"-  c #1E3718",
";  c #1E3A18",
":  c #2A221E",
">  c #1A0C20",
",  c #1C0F22",
"<  c #1E1220",
"1  c #1C3620",
"2  c #142D33",
"3  c #1A2835",
"4  c #20282F",
"5  c #3F2A20",
"6  c #2A3E28",
"7  c #303A2F",
"8  c #222A36",
"9  c #252C35",
"0  c #322D3F",
"q  c #472723",
"w  c #482A27",
"e  c #552D28",
"r  c #423528",
"t  c #125409",
"y  c #0C6B06",
"u  c #097600",
"i  c #0C7106",
"p  c #1A6E16",
"a  c #30482F",
"s  c #324232",
"d  c #2C005E",
"f  c #063258",
"g  c #392F4A",
"h  c #273241",
"j  c #2C3D47",
"k  c #332056",
"l  c #3C3055",
"z  c #39066F",
"x  c #390071",
"c  c #3A0673",
"v  c #3D0678",
"b  c #063F74",
"n  c #4B207F",
"m  c #2D4B69",
"M  c #2F4D72",
"N  c #AF2306",
"B  c #A22509",
"V  c #9D3C2F",
"C  c #963F30",
"Z  c #D23E06",
"A  c #DF330C",
"S  c #E6330F",
"D  c #E93A0F",
"F  c #C73622",
"G  c #C33D39",
"H  c #BE683E",
"J  c #AB703A",
"K  c #EC420C",
"L  c #EC430C",
"P  c #F3580C",
"I  c #E24114",
"U  c #EE4C14",
"Y  c #F55D14",
"T  c #F3551A",
"R  c #F05D1C",
"E  c #E15623",
"W  c #D7712D",
"Q  c #EC6B25",
"!  c #F56822",
"~  c #EB7A25",
"^  c #EF7A25",
"/  c #B92C6A",
"(  c #CD365F",
")  c #C23A5C",
"_  c #0C9900",
"`  c #20880C",
"'  c #229C14",
"]  c #1CA609",
"[  c #23A216",
"{  c #2DCB14",
"}  c #36CF25",
"|  c #22E028",
" . c #35EB2D",
".. c #30EC30",
"X. c #47DD33",
"o. c #4AE128",
"O. c #1ABB43",
"+. c #22BB64",
"@. c #F38025",
"#. c #E28739",
"$. c #908074",
"%. c #C29064",
"&. c #5A069C",
"*. c #590998",
"=. c #5F0F9F",
"-. c #60209C",
";. c #770CBE",
":. c #005392",
">. c #065DA1",
",. c #0663A7",
"<. c #1271B7",
"1. c #2D6CA0",
"2. c #0678C4",
"3. c #0979C8",
"4. c #971E9C",
"5. c #A62D94",
"6. c #B73299",
"7. c #921CCC",
"8. c #8A2AC9",
"9. c #992CCF",
"0. c #9D28D7",
"q. c #A333C9",
"w. c #A028D7",
"e. c #12AC92",
"r. c #14A0A0",
"t. c #4686A7",
"y. c #4D92B7",
"u. c #23C184",
"i. c #098AC5",
"p. c #0C86C8",
"a. c #098DC9",
"s. c #0F87D7",
"d. c #0986D9",
"f. c #0987DA",
"g. c #068BDF",
"h. c #098BDD",
"j. c #0993D0",
"k. c #2288D1",
"l. c #2091DF",
"z. c #0CA1C3",
"x. c #2DA5EC",
"c. c #3EAAE0",
"v. c #32A5EE",
"b. c #52A3CF",
"n. c #51B4E2",
"m. c None",
/* pixels */
"m.m.m.m.m.m.m.m.m.m.m.m.m.m.m.m.",
"m.m.m.m.m.m.m.m.m.m.m.m.m.m.m.m.",
"m.  9 h m.m.m.m.m.m.m.  e w m.m.",
"# m f b M 8 m.m.m.m.q V N B C O ",
"2 a.,.:.>.<.1.3 5 H T S A Z G & ",
"2 z.j.p.d.g.h.l.Q Y K U I F ) & ",
"1 +.e.i.3.s.x.v.^ ^ R ! D / 5.< ",
"; X.O.r.d.2.c.n.#.W P K ( 4.q.< ",
"; o.| ..u.k.x.y.$.~ E 5.9.7.9.> ",
"* ] {  .} 8 t.b.%.J : 8.w.;.*.X ",
"* _ ` ' [ m.m.j r m.m.-.=.&.z + ",
"= i t u p m.m.m.m.m.m.-.v z d + ",
"X 7 6 y a m.m.m.m.m.m.l c k 0   ",
"m.m.$ s . m.m.m.m.m.m.O g % m.m.",
"m.m.m.m.m.m.m.m.m.m.m.m.m.m.m.m.",
"m.m.m.m.m.m.m.m.m.m.m.m.m.m.m.m."
};
