/* XPM */
static char *_555723979863[] = {
/* columns rows colors chars-per-pixel */
"32 32 202 2 ",
"   c #0E0F0F",
".  c #1D1C1C",
"X  c #32161C",
"o  c #201C1C",
"O  c #153812",
"+  c #0F360A",
"@  c #140D20",
"#  c #2C1635",
"$  c #331E28",
"%  c #262727",
"&  c #3B3536",
"*  c #31332E",
"=  c #503B3A",
"-  c #0A5C02",
";  c #0F5A09",
":  c #1E421C",
">  c #12530C",
",  c #1A6A0E",
"<  c #0B6D06",
"1  c #237212",
"2  c #285A23",
"3  c #325D28",
"4  c #2E4D32",
"5  c #246520",
"6  c #1E004B",
"7  c #21024D",
"8  c #2B065C",
"9  c #062B4A",
"0  c #393D42",
"q  c #372759",
"w  c #253D46",
"e  c #34016B",
"r  c #320667",
"t  c #3B0772",
"y  c #063A68",
"u  c #423B52",
"i  c #43067D",
"p  c #1E4752",
"a  c #35475C",
"s  c #084279",
"d  c #1E4C7F",
"f  c #385171",
"g  c #414447",
"h  c #485847",
"j  c #484859",
"k  c #57524B",
"l  c #6C5249",
"z  c #50694F",
"x  c #544C6C",
"c  c #526878",
"v  c #8E1800",
"b  c #922212",
"n  c #A82208",
"m  c #B62808",
"M  c #BE3905",
"N  c #B52D18",
"B  c #BF3D27",
"V  c #DF270F",
"C  c #DE2A0F",
"Z  c #CC3D09",
"A  c #DE3E08",
"S  c #DE2714",
"D  c #E6350B",
"F  c #E93A0F",
"G  c #DA2F30",
"H  c #90443A",
"J  c #A4483C",
"K  c #EE4309",
"L  c #ED480F",
"P  c #F44B0A",
"I  c #F04509",
"U  c #F15E0F",
"Y  c #F65309",
"T  c #F35616",
"R  c #EA4516",
"E  c #E96A15",
"W  c #F4661E",
"Q  c #C0462D",
"!  c #EE5C22",
"~  c #D96F2A",
"^  c #C97137",
"/  c #D07939",
"(  c #F46824",
")  c #F4712A",
"_  c #F06C26",
"`  c #AC2C7D",
"'  c #B42A78",
"]  c #AF327F",
"[  c #C23A4A",
"{  c #C23B5A",
"}  c #D03555",
"|  c #C03A61",
" . c #935848",
".. c #AF5649",
"X. c #967457",
"o. c #B37A5C",
"O. c #EC7A44",
"+. c #088B02",
"@. c #069000",
"#. c #0C9500",
"$. c #189208",
"%. c #209F09",
"&. c #28981C",
"*. c #18AB04",
"=. c #2A8E22",
"-. c #1BBC38",
";. c #37B727",
":. c #28B30C",
">. c #20C503",
",. c #33D315",
"<. c #35D21C",
"1. c #2ECF17",
"2. c #2ED633",
"3. c #3DD536",
"4. c #27C336",
"5. c #06F12C",
"6. c #13EA2C",
"7. c #44DD24",
"8. c #4ADF35",
"9. c #53EA32",
"0. c #4AE433",
"q. c #1AB758",
"w. c #15B075",
"e. c #18B560",
"r. c #1AC74E",
"t. c #27DE50",
"y. c #FA9534",
"u. c #E68635",
"i. c #8C847A",
"p. c #AB8B6C",
"a. c #D58847",
"s. c #E1944B",
"d. c #F4A052",
"f. c #470684",
"g. c #5B069D",
"h. c #570997",
"j. c #5E3192",
"k. c #583088",
"l. c #67329E",
"z. c #5F09A2",
"x. c #740CBD",
"c. c #7110B3",
"v. c #7C33B9",
"b. c #034C88",
"n. c #06518D",
"m. c #005699",
"M. c #00589A",
"N. c #235D8E",
"B. c #065EA1",
"V. c #0866AA",
"C. c #076CB4",
"Z. c #0971B7",
"A. c #0971BB",
"S. c #4D6E89",
"D. c #517CA1",
"F. c #7B0CC5",
"G. c #7F12C7",
"H. c #0A78C2",
"J. c #087CCB",
"K. c #2A7FC1",
"L. c #9E2593",
"P. c #A62A87",
"I. c #931BA1",
"U. c #9923AB",
"Y. c #A02FBF",
"T. c #981BDB",
"R. c #8F18CD",
"E. c #9427C9",
"W. c #9C3CD9",
"Q. c #A333CA",
"!. c #A839D5",
"~. c #A536D6",
"^. c #16AE8E",
"/. c #18B084",
"(. c #159EBC",
"). c #11A7B6",
"_. c #7C8180",
"`. c #4D8AAF",
"'. c #518CAE",
"]. c #0C9ACC",
"[. c #0681D2",
"{. c #0987D8",
"}. c #0887D8",
"|. c #1A8BD6",
" X c #0C93CF",
".X c #2C83C9",
"XX c #0CA1C6",
"oX c #09A0D3",
"OX c #088EE2",
"+X c #0695EE",
"@X c #0994E7",
"#X c #1996EB",
"$X c #39A6E2",
"%X c #25A3F0",
"&X c #4992C7",
"*X c #52B1DA",
"=X c #50AAD4",
"-X c #4AB6EC",
";X c #46B8F1",
":X c #51B8EC",
">X c #61BEEE",
",X c None",
/* pixels */
",X,X,X,X,X,X,X,X,X,X,X,X,X,X,X,X,X,X,X,X,X,X,X,X,X,X,X,X,X,X,X,X",
",X,X,X,X,X,X,X,X,X,X,X,X,X,X,X,X,X,X,X,X,X,X,X,X,X,X,X,X,X,X,X,X",
",X,X,X,X,X,X,X,X,X,X,X,X,X,X,X,X,X,X,X,X,X,X,X,X,X,X,X,X,X,X,X,X",
",X,X,X,X,X,X,X,X,X,X,X,X,X,X,X,X,X,X,X,X,X,X,X,X,X,X,X,X,X,X,X,X",
",X,X,X,X,X,X,X,X,X,X,X,X,X,X,X,X,X,X,X,X,X,X,X,X,X,X,X,X,X,X,X,X",
",X,X,X  g a f j ,X,X,X,X,X,X,X,X,X,X,X,X,X,X,X  l J H k ,X,X,X,X",
",X,X& x 9 9 y s S.0 ,X,X,X,X,X,X,X,X,X,X,X,X= ..n n v b  .& ,X,X",
",Xp N.y y y s b.s d f 0 ,X,X,X,X,X,X,X,X= H N m m m m m m Q $ ,X",
",Xp ].A.n.b.n.m.m.m.V.K.D.% ,X,X,X,X= o.) F V V V A F A Z G o ,X",
",Xp XX}.[.V.n.m.B.C.C.A.J..XS.  o  .) ) ! P P D V A Z M J } X ,X",
",Xp XXXX{.}. XH.[.J.J.{.{.{.{.&XO.W W W T I I I R Z M M { { X ,X",
",Xp XX).(.oXoXA.{.+X+X@XOXOX+X#XE E Y Y F D R ( T V V [ | | X ,X",
",Xp /.w.w.].oXZ.J.J.{.+X@X+X+X#XE E E U L ! ) ( P C G ` ] ] $ ,X",
",X3 8.q.w.^.oXZ.H.J.J.|.-X;X;X-Xy.y.y.u.W W ) Y P S ' P.L.Y.# ,X",
",X3 9.4.-.e.).C.H.J.C.[.$X*X-X:Xy.y./ ~ U Y T Y P } P.I.U.!.# ,X",
",X3 9.9.-.-.r.(.+X+XC.J.#X*X*X*Xa.^ ^ E U P D D } I.I.I.!.!.# ,X",
",X3 9.9.2.6.5.8./.@X{.[.+X$X&X`.c p.~ E U K G ' Q.T.R.E.~.~.# ,X",
",X3 7.<.,.5.5.9.8.t.&X|.%X;X'.`.i.p.y.) ( ..!.Q.!.T.T.F.G.E.# ,X",
",X: $.1.,.1.5.9.7.2.,Xc *X;X-X'._.s.y.a.l ,XW.E.!.T.R.F.x.h.@ ,X",
",X: #.*.:.1.6.9.1.;.,X,X  '.>X'.p.d.X.,X,X,Xv.G.~.T.F.z.g.t @ ,X",
",X: @.*.%.1 &.<.>.=.,X,X,X,X* '.X.* ,X,X,X,Xl.z.x.c.g.g.f.e @ ,X",
",X: @.#.%., ; #.>.5 ,X,X,X,X,X,X,X,X,X,X,X,Xj.g.f.f.h.h.e e @ ,X",
",X: @.+., - - @.$.5 ,X,X,X,X,X,X,X,X,X,X,X,Xj.f.t f.f.t r e @ ,X",
",XO < O O - - @.- 2 ,X,X,X,X,X,X,X,X,X,X,X,Xk.8 e i i 7 7 8 @ ,X",
",X% z 4 . O - +.> 4 ,X,X,X,X,X,X,X,X,X,X,X,Xx 7 t f.8 6 q x   ,X",
",X,X,X% h * > < h % ,X,X,X,X,X,X,X,X,X,X,X,X& j r t q x o ,X,X,X",
",X,X,X,X,Xg z z . ,X,X,X,X,X,X,X,X,X,X,X,X,X,X% x x g ,X,X,X,X,X",
",X,X,X,X,X,X,X,X,X,X,X,X,X,X,X,X,X,X,X,X,X,X,X,X,X,X,X,X,X,X,X,X",
",X,X,X,X,X,X,X,X,X,X,X,X,X,X,X,X,X,X,X,X,X,X,X,X,X,X,X,X,X,X,X,X",
",X,X,X,X,X,X,X,X,X,X,X,X,X,X,X,X,X,X,X,X,X,X,X,X,X,X,X,X,X,X,X,X",
",X,X,X,X,X,X,X,X,X,X,X,X,X,X,X,X,X,X,X,X,X,X,X,X,X,X,X,X,X,X,X,X",
",X,X,X,X,X,X,X,X,X,X,X,X,X,X,X,X,X,X,X,X,X,X,X,X,X,X,X,X,X,X,X,X"
};
